<mxfile host="app.diagrams.net" modified="2021-01-31T09:40:51.508Z" agent="5.0 (Windows NT 10.0; Win64; x64) AppleWebKit/537.36 (KHTML, like Gecko) Chrome/87.0.4280.88 YaBrowser/20.12.2.108 Yowser/2.5 Safari/537.36" etag="TRMkZGM_Wvzl_GQli8kN" version="14.2.9" type="github" pages="2">
  <diagram id="kgpKYQtTHZ0yAKxKKP6v" name="Как сейчас">
    <mxGraphModel dx="948" dy="544" grid="1" gridSize="10" guides="1" tooltips="1" connect="1" arrows="1" fold="1" page="1" pageScale="1" pageWidth="850" pageHeight="1100" math="0" shadow="0">
      <root>
        <mxCell id="0" />
        <mxCell id="1" parent="0" />
        <mxCell id="3nuBFxr9cyL0pnOWT2aG-5" value="Система&#xa; мониторинга" style="shape=umlLifeline;perimeter=lifelinePerimeter;container=1;collapsible=0;recursiveResize=0;rounded=0;shadow=0;strokeWidth=1;" parent="1" vertex="1">
          <mxGeometry x="535" y="80" width="100" height="300" as="geometry" />
        </mxCell>
        <mxCell id="3nuBFxr9cyL0pnOWT2aG-6" value="" style="points=[];perimeter=orthogonalPerimeter;rounded=0;shadow=0;strokeWidth=1;" parent="3nuBFxr9cyL0pnOWT2aG-5" vertex="1">
          <mxGeometry x="45" y="80" width="10" height="40" as="geometry" />
        </mxCell>
        <mxCell id="3nuBFxr9cyL0pnOWT2aG-8" value="Запрос сообщений &#xa;с вредоносной информацией" style="verticalAlign=bottom;endArrow=block;entryX=0;entryY=0;shadow=0;strokeWidth=1;" parent="1" source="3nuBFxr9cyL0pnOWT2aG-2" target="3nuBFxr9cyL0pnOWT2aG-6" edge="1">
          <mxGeometry y="10" relative="1" as="geometry">
            <mxPoint x="480" y="160" as="sourcePoint" />
            <mxPoint as="offset" />
          </mxGeometry>
        </mxCell>
        <mxCell id="3nuBFxr9cyL0pnOWT2aG-9" value="Набор адресов сообщений" style="verticalAlign=bottom;endArrow=block;entryX=1;entryY=0;shadow=0;strokeWidth=1;" parent="1" source="3nuBFxr9cyL0pnOWT2aG-6" target="3nuBFxr9cyL0pnOWT2aG-4" edge="1">
          <mxGeometry relative="1" as="geometry">
            <mxPoint x="445" y="200" as="sourcePoint" />
          </mxGeometry>
        </mxCell>
        <mxCell id="KTdsQkbw2dOLZ9iw1a_j-1" value="Actor" style="shape=umlActor;verticalLabelPosition=bottom;verticalAlign=top;html=1;outlineConnect=0;" vertex="1" parent="1">
          <mxGeometry x="360" y="60" width="30" height="60" as="geometry" />
        </mxCell>
        <mxCell id="KTdsQkbw2dOLZ9iw1a_j-2" value="" style="endArrow=none;dashed=1;html=1;" edge="1" parent="1" source="3nuBFxr9cyL0pnOWT2aG-2" target="KTdsQkbw2dOLZ9iw1a_j-1">
          <mxGeometry width="50" height="50" relative="1" as="geometry">
            <mxPoint x="375" y="390" as="sourcePoint" />
            <mxPoint x="395" y="120" as="targetPoint" />
          </mxGeometry>
        </mxCell>
        <mxCell id="KTdsQkbw2dOLZ9iw1a_j-3" value="Система&#xa; Противодействия" style="shape=umlLifeline;perimeter=lifelinePerimeter;container=1;collapsible=0;recursiveResize=0;rounded=0;shadow=0;strokeWidth=1;" vertex="1" parent="1">
          <mxGeometry x="140" y="80" width="100" height="300" as="geometry" />
        </mxCell>
        <mxCell id="KTdsQkbw2dOLZ9iw1a_j-4" value="" style="points=[];perimeter=orthogonalPerimeter;rounded=0;shadow=0;strokeWidth=1;" vertex="1" parent="KTdsQkbw2dOLZ9iw1a_j-3">
          <mxGeometry x="45" y="200" width="10" height="30" as="geometry" />
        </mxCell>
        <mxCell id="KTdsQkbw2dOLZ9iw1a_j-5" value="Набор контрмер" style="verticalAlign=bottom;endArrow=block;shadow=0;strokeWidth=1;" edge="1" parent="1" target="KTdsQkbw2dOLZ9iw1a_j-3">
          <mxGeometry y="10" relative="1" as="geometry">
            <mxPoint x="380" y="280" as="sourcePoint" />
            <mxPoint x="590" y="170" as="targetPoint" />
            <mxPoint as="offset" />
          </mxGeometry>
        </mxCell>
        <mxCell id="3nuBFxr9cyL0pnOWT2aG-2" value="" style="points=[];perimeter=orthogonalPerimeter;rounded=0;shadow=0;strokeWidth=1;" parent="1" vertex="1">
          <mxGeometry x="370" y="160" width="10" height="120" as="geometry" />
        </mxCell>
        <mxCell id="KTdsQkbw2dOLZ9iw1a_j-7" value="" style="endArrow=none;dashed=1;html=1;" edge="1" parent="1" target="3nuBFxr9cyL0pnOWT2aG-2">
          <mxGeometry width="50" height="50" relative="1" as="geometry">
            <mxPoint x="375" y="390" as="sourcePoint" />
            <mxPoint x="375" y="120" as="targetPoint" />
          </mxGeometry>
        </mxCell>
        <mxCell id="3nuBFxr9cyL0pnOWT2aG-4" value="" style="points=[];perimeter=orthogonalPerimeter;rounded=0;shadow=0;strokeWidth=1;" parent="1" vertex="1">
          <mxGeometry x="375" y="200" width="10" height="80" as="geometry" />
        </mxCell>
      </root>
    </mxGraphModel>
  </diagram>
  <diagram name="Как можно сделать" id="HMMmsZtcqvtXLJJ8AaVb">
    <mxGraphModel dx="948" dy="544" grid="1" gridSize="10" guides="1" tooltips="1" connect="1" arrows="1" fold="1" page="1" pageScale="1" pageWidth="850" pageHeight="1100" math="0" shadow="0">
      <root>
        <mxCell id="QXcMoMUjRDN0EWsG-Gcr-0" />
        <mxCell id="QXcMoMUjRDN0EWsG-Gcr-1" parent="QXcMoMUjRDN0EWsG-Gcr-0" />
        <mxCell id="QXcMoMUjRDN0EWsG-Gcr-18" value="" style="rounded=0;whiteSpace=wrap;html=1;dashed=1;dashPattern=1 4;strokeColor=#FF0000;strokeWidth=4;" vertex="1" parent="QXcMoMUjRDN0EWsG-Gcr-1">
          <mxGeometry x="360" y="140" width="250" height="180" as="geometry" />
        </mxCell>
        <mxCell id="QXcMoMUjRDN0EWsG-Gcr-2" value="Система&#xa; противодействия" style="shape=umlLifeline;perimeter=lifelinePerimeter;container=1;collapsible=0;recursiveResize=0;rounded=0;shadow=0;strokeWidth=1;" vertex="1" parent="QXcMoMUjRDN0EWsG-Gcr-1">
          <mxGeometry x="540" y="70" width="100" height="270" as="geometry" />
        </mxCell>
        <mxCell id="QXcMoMUjRDN0EWsG-Gcr-3" value="" style="points=[];perimeter=orthogonalPerimeter;rounded=0;shadow=0;strokeWidth=1;" vertex="1" parent="QXcMoMUjRDN0EWsG-Gcr-2">
          <mxGeometry x="45" y="110" width="10" height="100" as="geometry" />
        </mxCell>
        <mxCell id="QXcMoMUjRDN0EWsG-Gcr-4" value="Запрос сообщений &#xa;с вредоносной информацией" style="verticalAlign=bottom;endArrow=block;entryX=0;entryY=0;shadow=0;strokeWidth=1;" edge="1" parent="QXcMoMUjRDN0EWsG-Gcr-1" source="QXcMoMUjRDN0EWsG-Gcr-11" target="QXcMoMUjRDN0EWsG-Gcr-3">
          <mxGeometry y="10" relative="1" as="geometry">
            <mxPoint x="480" y="160" as="sourcePoint" />
            <mxPoint as="offset" />
          </mxGeometry>
        </mxCell>
        <mxCell id="QXcMoMUjRDN0EWsG-Gcr-5" value="Набор данных" style="verticalAlign=bottom;endArrow=block;shadow=0;strokeWidth=1;" edge="1" parent="QXcMoMUjRDN0EWsG-Gcr-1">
          <mxGeometry relative="1" as="geometry">
            <mxPoint x="769.5" y="210" as="sourcePoint" />
            <mxPoint x="597" y="210" as="targetPoint" />
          </mxGeometry>
        </mxCell>
        <mxCell id="QXcMoMUjRDN0EWsG-Gcr-6" value="Actor" style="shape=umlActor;verticalLabelPosition=bottom;verticalAlign=top;html=1;outlineConnect=0;" vertex="1" parent="QXcMoMUjRDN0EWsG-Gcr-1">
          <mxGeometry x="360" y="60" width="20" height="50" as="geometry" />
        </mxCell>
        <mxCell id="QXcMoMUjRDN0EWsG-Gcr-7" value="" style="endArrow=none;dashed=1;html=1;" edge="1" parent="QXcMoMUjRDN0EWsG-Gcr-1" source="QXcMoMUjRDN0EWsG-Gcr-11" target="QXcMoMUjRDN0EWsG-Gcr-6">
          <mxGeometry width="50" height="50" relative="1" as="geometry">
            <mxPoint x="375" y="390" as="sourcePoint" />
            <mxPoint x="395" y="120" as="targetPoint" />
          </mxGeometry>
        </mxCell>
        <mxCell id="QXcMoMUjRDN0EWsG-Gcr-8" value="Система&#xa;мониторинга" style="shape=umlLifeline;perimeter=lifelinePerimeter;container=1;collapsible=0;recursiveResize=0;rounded=0;shadow=0;strokeWidth=1;" vertex="1" parent="QXcMoMUjRDN0EWsG-Gcr-1">
          <mxGeometry x="720" y="70" width="100" height="260" as="geometry" />
        </mxCell>
        <mxCell id="QXcMoMUjRDN0EWsG-Gcr-9" value="" style="points=[];perimeter=orthogonalPerimeter;rounded=0;shadow=0;strokeWidth=1;" vertex="1" parent="QXcMoMUjRDN0EWsG-Gcr-8">
          <mxGeometry x="45" y="120" width="10" height="20" as="geometry" />
        </mxCell>
        <mxCell id="QXcMoMUjRDN0EWsG-Gcr-11" value="" style="points=[];perimeter=orthogonalPerimeter;rounded=0;shadow=0;strokeWidth=1;" vertex="1" parent="QXcMoMUjRDN0EWsG-Gcr-1">
          <mxGeometry x="370" y="180" width="10" height="110" as="geometry" />
        </mxCell>
        <mxCell id="QXcMoMUjRDN0EWsG-Gcr-12" value="" style="endArrow=none;dashed=1;html=1;" edge="1" parent="QXcMoMUjRDN0EWsG-Gcr-1" target="QXcMoMUjRDN0EWsG-Gcr-11">
          <mxGeometry width="50" height="50" relative="1" as="geometry">
            <mxPoint x="375" y="340" as="sourcePoint" />
            <mxPoint x="375" y="120" as="targetPoint" />
          </mxGeometry>
        </mxCell>
        <mxCell id="QXcMoMUjRDN0EWsG-Gcr-13" value="" style="points=[];perimeter=orthogonalPerimeter;rounded=0;shadow=0;strokeWidth=1;" vertex="1" parent="QXcMoMUjRDN0EWsG-Gcr-1">
          <mxGeometry x="373" y="229" width="10" height="40" as="geometry" />
        </mxCell>
        <mxCell id="QXcMoMUjRDN0EWsG-Gcr-14" value="Запрос на сбор анализ сообщений" style="verticalAlign=bottom;endArrow=block;shadow=0;strokeWidth=1;" edge="1" parent="QXcMoMUjRDN0EWsG-Gcr-1">
          <mxGeometry y="10" relative="1" as="geometry">
            <mxPoint x="600" y="190" as="sourcePoint" />
            <mxPoint x="770" y="190" as="targetPoint" />
            <mxPoint as="offset" />
          </mxGeometry>
        </mxCell>
        <mxCell id="QXcMoMUjRDN0EWsG-Gcr-16" value="Набор&#xa; объектов воздействия и контрмер" style="verticalAlign=bottom;endArrow=block;shadow=0;strokeWidth=1;exitX=-0.06;exitY=0.8;exitDx=0;exitDy=0;exitPerimeter=0;" edge="1" parent="QXcMoMUjRDN0EWsG-Gcr-1">
          <mxGeometry relative="1" as="geometry">
            <mxPoint x="584.3999999999999" y="240" as="sourcePoint" />
            <mxPoint x="383" y="240" as="targetPoint" />
          </mxGeometry>
        </mxCell>
        <mxCell id="QXcMoMUjRDN0EWsG-Gcr-17" value="Список решений (цель+контрмера)" style="verticalAlign=bottom;endArrow=block;entryX=0;entryY=0;shadow=0;strokeWidth=1;" edge="1" parent="QXcMoMUjRDN0EWsG-Gcr-1">
          <mxGeometry y="10" relative="1" as="geometry">
            <mxPoint x="380" y="269.0000000000001" as="sourcePoint" />
            <mxPoint x="580" y="269.0000000000001" as="targetPoint" />
            <mxPoint as="offset" />
          </mxGeometry>
        </mxCell>
        <mxCell id="QXcMoMUjRDN0EWsG-Gcr-21" value="&lt;font color=&quot;#ff3333&quot;&gt;&lt;b&gt;1&lt;/b&gt;&lt;/font&gt;" style="ellipse;whiteSpace=wrap;html=1;aspect=fixed;dashed=1;dashPattern=1 1;strokeColor=#FF0000;strokeWidth=4;" vertex="1" parent="QXcMoMUjRDN0EWsG-Gcr-1">
          <mxGeometry x="560" y="140" width="30" height="30" as="geometry" />
        </mxCell>
        <mxCell id="QXcMoMUjRDN0EWsG-Gcr-22" value="&lt;b&gt;&lt;font color=&quot;#0000cc&quot;&gt;2&lt;/font&gt;&lt;/b&gt;" style="ellipse;whiteSpace=wrap;html=1;aspect=fixed;dashed=1;dashPattern=1 1;strokeWidth=4;strokeColor=#0000CC;" vertex="1" parent="QXcMoMUjRDN0EWsG-Gcr-1">
          <mxGeometry x="560" y="280" width="30" height="30" as="geometry" />
        </mxCell>
      </root>
    </mxGraphModel>
  </diagram>
</mxfile>
